<?xml version="1.0" standalone="no"?>
<!DOCTYPE svg PUBLIC "-//W3C//DTD SVG 20010904//EN"
 "http://www.w3.org/TR/2001/REC-SVG-20010904/DTD/svg10.dtd">
<svg version="1.0" xmlns="http://www.w3.org/2000/svg"
 width="251.000000pt" height="89.000000pt" viewBox="0 0 251.000000 89.000000"
 preserveAspectRatio="xMidYMid meet">

<g transform="translate(0.000000,89.000000) scale(0.100000,-0.100000)"
fill="#000000" stroke="none">
<path d="M0 515 l0 -375 75 0 75 0 0 135 0 135 83 0 c154 1 227 34 272 123 52
105 22 256 -62 311 -56 37 -110 45 -285 46 l-158 0 0 -375z m324 231 c71 -30
89 -110 37 -168 -28 -32 -32 -33 -120 -36 l-91 -4 0 111 0 111 70 0 c39 0 86
-6 104 -14z"/>
<path d="M1256 875 c-54 -19 -85 -44 -107 -85 -18 -32 -19 -63 -19 -410 l1
-375 59 65 59 65 3 210 3 210 43 3 42 3 0 60 0 59 -45 0 c-25 0 -45 2 -45 4 0
26 25 56 54 67 l36 13 0 63 c0 59 -2 63 -22 63 -13 -1 -41 -7 -62 -15z"/>
<path d="M1400 823 l0 -67 65 64 c36 35 65 66 65 67 0 2 -29 3 -65 3 l-65 0 0
-67z"/>
<path d="M1590 515 l0 -375 65 0 65 0 0 375 0 375 -65 0 -65 0 0 -375z"/>
<path d="M1790 823 l0 -67 65 64 c36 35 65 66 65 67 0 2 -29 3 -65 3 l-65 0 0
-67z"/>
<path d="M700 675 c-61 -19 -125 -76 -158 -139 -35 -67 -38 -177 -6 -247 27
-57 84 -115 138 -140 52 -23 162 -25 214 -4 24 10 38 12 40 5 2 -5 32 -10 68
-10 l64 0 0 270 0 270 -65 0 c-52 0 -65 -3 -65 -15 0 -14 -4 -13 -32 1 -44 23
-142 27 -198 9z m167 -136 c123 -76 76 -271 -68 -286 -154 -15 -220 205 -87
287 44 27 111 26 155 -1z"/>
<path d="M2151 679 c-88 -26 -159 -101 -188 -198 -33 -115 17 -247 120 -313
43 -28 62 -33 124 -36 49 -3 88 1 120 12 30 10 49 13 51 6 2 -5 30 -10 63 -10
l59 0 0 270 0 270 -60 0 c-48 0 -60 -3 -60 -16 0 -12 -5 -14 -17 -9 -86 36
-144 43 -212 24z m159 -141 c69 -47 91 -144 47 -209 -52 -77 -133 -100 -198
-56 -75 50 -99 132 -61 207 38 77 142 105 212 58z"/>
<path d="M1400 410 l0 -270 65 0 65 0 0 270 0 270 -65 0 -65 0 0 -270z"/>
<path d="M1790 410 l0 -270 65 0 65 0 0 270 0 270 -65 0 -65 0 0 -270z"/>
</g>
</svg>
